<?xml version="1.0" encoding="UTF-8" standalone="no"?>
<!-- Created with Inkscape (http://www.inkscape.org/) -->

<svg
   version="1.1"
   id="svg1"
   xml:space="preserve"
   width="139.53867"
   height="125.32533"
   xmlns:inkscape="http://www.inkscape.org/namespaces/inkscape"
   xmlns:sodipodi="http://sodipodi.sourceforge.net/DTD/sodipodi-0.dtd"
   xmlns="http://www.w3.org/2000/svg"
   xmlns:svg="http://www.w3.org/2000/svg"><defs
     id="defs1" /><sodipodi:namedview
     id="namedview1"
     pagecolor="#ffffff"
     bordercolor="#000000"
     borderopacity="0.25"
     inkscape:showpageshadow="2"
     inkscape:pageopacity="0.0"
     inkscape:pagecheckerboard="0"
     inkscape:deskcolor="#d1d1d1" /><inkscape:clipboard
     style="font-variation-settings:normal;opacity:1;vector-effect:none;fill:#ffffff;fill-opacity:1;stroke-width:4;stroke-linecap:round;stroke-linejoin:round;stroke-miterlimit:10;stroke-dasharray:none;stroke-dashoffset:0;stroke-opacity:1;-inkscape-stroke:none;stop-color:#000000;stop-opacity:1;stroke:#100f0d"
     min="205.67999,203.69736"
     max="345.21866,329.02269"
     geom-min="207.67999,205.69736"
     geom-max="343.21866,327.02269"
     page-min="0,0"
     page-max="1516.9334,1246.9599" /><g
     id="g1"
     transform="translate(-205.67999,-203.69736)"><g
       id="g635"><path
         id="path107"
         d="m 296.12533,316.03336 h -38.09734 v -18.31734 h 38.09734 v 18.31734"
         style="fill:#ffffff;fill-opacity:1;fill-rule:nonzero;stroke:none;stroke-width:0.133333" /><path
         id="path108"
         d="m 296.12533,316.03336 h -38.09734 v -18.31734 h 38.09734 z"
         style="fill:none;stroke:#100f0d;stroke-width:4;stroke-linecap:round;stroke-linejoin:round;stroke-miterlimit:10;stroke-dasharray:none;stroke-opacity:1" /><path
         id="path109"
         d="M 342.20666,298.95202 H 207.67999 v -13.508 h 134.52667 v 13.508"
         style="fill:#f14c1c;fill-opacity:1;fill-rule:nonzero;stroke:none;stroke-width:0.133333" /><path
         id="path110"
         d="m 343.21866,294.35869 c 0,3.13467 -2.54267,5.67733 -5.68,5.67733 H 213.35999 c -3.136,0 -5.68,-2.54266 -5.68,-5.67733 v -82.984 c 0,-3.136 2.544,-5.67733 5.68,-5.67733 h 124.17867 c 3.13733,0 5.68,2.54133 5.68,5.67733 z"
         style="fill:none;stroke:#100f0d;stroke-width:4;stroke-linecap:round;stroke-linejoin:round;stroke-miterlimit:10;stroke-dasharray:none;stroke-opacity:1" /><path
         id="path111"
         d="M 207.67999,285.44402 H 343.21866"
         style="fill:#ffffff;fill-opacity:1;fill-rule:nonzero;stroke:#100f0d;stroke-width:4;stroke-linecap:round;stroke-linejoin:round;stroke-miterlimit:10;stroke-dasharray:none;stroke-opacity:1" /><path
         id="path112"
         d="m 280.55733,292.95336 c 0,-1.92267 -1.55734,-3.48 -3.47867,-3.48 -1.92533,0 -3.48267,1.55733 -3.48267,3.48 0,1.92266 1.55734,3.48 3.48267,3.48 1.92133,0 3.47867,-1.55734 3.47867,-3.48"
         style="fill:#ffffff;fill-opacity:1;fill-rule:nonzero;stroke:none;stroke-width:0.133333" /><path
         id="path113"
         d="m 310.31999,321.34536 c 0,3.13466 -2.544,5.67733 -5.67866,5.67733 h -55.128 c -3.13867,0 -5.68267,-2.54267 -5.68267,-5.67733 v -2.38 c 0,-3.13734 2.544,-5.68 5.68267,-5.68 h 55.128 c 3.13466,0 5.67866,2.54266 5.67866,5.68 v 2.38"
         style="fill:#5cb0e5;fill-opacity:1;fill-rule:nonzero;stroke:none;stroke-width:0.133333" /><path
         id="path114"
         d="m 310.31999,321.34536 c 0,3.13466 -2.544,5.67733 -5.67866,5.67733 h -55.128 c -3.13867,0 -5.68267,-2.54267 -5.68267,-5.67733 v -2.38 c 0,-3.13734 2.544,-5.68 5.68267,-5.68 h 55.128 c 3.13466,0 5.67866,2.54266 5.67866,5.68 z"
         style="fill:none;stroke:#100f0d;stroke-width:4;stroke-linecap:round;stroke-linejoin:round;stroke-miterlimit:10;stroke-dasharray:none;stroke-opacity:1" /><path
         id="path115"
         d="m 236.57866,229.36803 26.14667,26.14666"
         style="fill:#ffffff;fill-opacity:1;fill-rule:nonzero;stroke:#100f0d;stroke-width:4;stroke-linecap:round;stroke-linejoin:round;stroke-miterlimit:10;stroke-dasharray:none;stroke-opacity:1" /><path
         id="path116"
         d="m 271.10266,263.89202 2.56667,2.56534"
         style="fill:#ffffff;fill-opacity:1;fill-rule:nonzero;stroke:#100f0d;stroke-width:4;stroke-linecap:round;stroke-linejoin:round;stroke-miterlimit:10;stroke-dasharray:none;stroke-opacity:1" /><path
         id="path117"
         d="m 257.77066,235.72269 26.14667,26.14533"
         style="fill:#ffffff;fill-opacity:1;fill-rule:nonzero;stroke:#100f0d;stroke-width:4;stroke-linecap:round;stroke-linejoin:round;stroke-miterlimit:10;stroke-dasharray:none;stroke-opacity:1" /><path
         id="path118"
         d="m 292.29466,270.24669 2.56667,2.564"
         style="fill:#ffffff;fill-opacity:1;fill-rule:nonzero;stroke:#100f0d;stroke-width:4;stroke-linecap:round;stroke-linejoin:round;stroke-miterlimit:10;stroke-dasharray:none;stroke-opacity:1" /><path
         id="path119"
         d="m 243.33599,221.28803 2.568,2.56533"
         style="fill:#ffffff;fill-opacity:1;fill-rule:nonzero;stroke:#100f0d;stroke-width:4;stroke-linecap:round;stroke-linejoin:round;stroke-miterlimit:10;stroke-dasharray:none;stroke-opacity:1" /><path
         id="path120"
         d="m 334.90399,218.32003 v 40.10533"
         style="fill:#ffffff;fill-opacity:1;fill-rule:nonzero;stroke:#100f0d;stroke-width:4;stroke-linecap:round;stroke-linejoin:round;stroke-miterlimit:10;stroke-dasharray:none;stroke-opacity:1" /></g></g></svg>
