<?xml version="1.0" encoding="utf-8"?>
<svg viewBox="136.584 -100.7221 472.9989 383.727" width="472.9989" height="383.727" xmlns="http://www.w3.org/2000/svg">
  <defs>
    <clipPath id="__id1242_sin1rmfsm">
      <path d="M 62 13 L 446 13 L 446 383.730469 L 62 383.730469 Z M 62 13"/>
    </clipPath>
  </defs>
  <g transform="matrix(1, 0, 0, 1, 136.5830078125, -100.72471618652342)">
    <g clip-path="url(#__id1242_sin1rmfsm)" id="__id1243_sin1rmfsm">
      <path d="M 445.242188 351.066406 C 444.523438 349.363281 443.242188 347.835938 442.980469 346.046875 C 442.226562 340.921875 440.9375 335.957031 439.390625 331.027344 C 435.769531 319.488281 430.878906 308.519531 424.976562 297.984375 C 420.898438 290.710938 416.164062 283.832031 412.257812 276.460938 C 404.183594 261.226562 395.648438 246.285156 384.742188 232.832031 C 382.363281 229.898438 379.71875 227.148438 378.011719 223.699219 C 377.792969 223.257812 377.242188 222.886719 376.761719 222.6875 C 375.316406 222.09375 374.425781 221.023438 373.875 219.621094 C 373.617188 218.964844 373.3125 218.257812 372.679688 217.992188 C 369.257812 216.574219 367.113281 213.554688 364.273438 211.410156 C 361.613281 209.40625 358.984375 207.355469 355.710938 206.273438 C 358.027344 210.363281 361.472656 213.59375 364.0625 217.503906 C 363.140625 217.96875 362.742188 217.445312 362.320312 217.167969 C 354.75 212.207031 346.734375 208.089844 338.425781 204.527344 C 337.875 204.289062 337.203125 203.746094 336.707031 204.199219 C 335.992188 204.851562 336.957031 205.386719 337.140625 205.984375 C 337.378906 206.773438 337.90625 207.515625 337.972656 208.308594 C 338.15625 210.527344 339.480469 211.738281 341.328125 212.613281 C 341.886719 212.878906 342.390625 213.25 342.941406 213.535156 C 343.875 214.019531 344.445312 214.664062 343.617188 215.632812 C 342.863281 216.511719 342 216.539062 341.128906 215.660156 C 340.691406 215.222656 340.484375 214.386719 339.476562 214.601562 C 339.359375 215.414062 339.820312 216.042969 340.136719 216.699219 C 346.855469 230.820312 354.136719 244.664062 360.652344 258.886719 C 366.621094 271.910156 373.304688 284.613281 378.535156 297.972656 C 386.570312 318.507812 393.445312 339.460938 400.335938 360.398438 C 402.898438 368.1875 405.605469 375.777344 411.65625 381.648438 C 412.617188 382.578125 413.507812 384.132812 415.003906 383.632812 C 416.671875 383.078125 417.691406 381.535156 418.207031 379.8125 C 418.484375 378.878906 418.417969 377.90625 418.320312 376.9375 C 417.847656 372.195312 416.910156 367.550781 415.550781 362.984375 C 415.347656 362.292969 414.933594 361.289062 415.746094 360.917969 C 416.730469 360.476562 416.84375 361.667969 417.222656 362.234375 C 419.96875 366.304688 422.917969 370.195312 426.996094 373.058594 C 427.835938 373.648438 428.6875 374.792969 429.882812 373.777344 C 431.050781 372.789062 432.195312 371.625 431.703125 369.90625 C 431.386719 368.800781 431.398438 367.753906 431.515625 366.652344 C 431.667969 365.199219 431.445312 363.792969 431.050781 362.371094 C 429.867188 358.167969 427.832031 354.332031 426.035156 350.394531 C 425.195312 348.550781 424.082031 346.804688 423.667969 344.789062 C 423.84375 344.667969 424.015625 344.550781 424.1875 344.429688 C 425.863281 346.390625 427.503906 348.382812 429.222656 350.308594 C 432.550781 354.039062 435.546875 358.148438 440.371094 360.230469 C 441.210938 360.589844 441.875 360.929688 442.613281 360.242188 C 445.144531 357.882812 446.910156 355.027344 445.242188 351.066406 Z M 227.679688 53.195312 C 228.769531 56.5 229.242188 59.914062 228.722656 63.390625 C 228.15625 67.167969 226.496094 68.433594 222.777344 67.8125 C 219.8125 67.320312 217.621094 68.398438 216.101562 70.84375 C 215.265625 72.183594 214.695312 72.226562 213.671875 71.027344 C 212.601562 69.777344 211.3125 68.71875 210.097656 67.597656 C 209.632812 67.164062 208.960938 66.664062 208.546875 67.421875 C 208.113281 68.21875 206.554688 68.886719 207.632812 70 C 208.714844 71.117188 208.589844 72.226562 208.167969 73.410156 C 205.863281 79.867188 206.691406 86.125 209.277344 92.289062 C 211.695312 98.066406 212.769531 104.183594 213.453125 110.335938 C 214.0625 115.78125 214.445312 121.261719 214.410156 126.773438 C 214.363281 133.949219 213.761719 141.050781 212.480469 148.097656 C 210.183594 160.753906 205.882812 172.695312 199.503906 183.871094 C 190.066406 200.417969 177.226562 213.632812 160.402344 222.660156 C 150.476562 227.988281 140.605469 233.578125 129.546875 236.429688 C 121.386719 238.53125 113.09375 239.894531 104.710938 240.640625 C 97.851562 241.253906 91 242.050781 83.085938 242.027344 C 79.386719 242.777344 75.277344 241.328125 71.515625 238.609375 C 70.53125 237.898438 69.414062 238.050781 68.324219 238.039062 C 65.640625 238.003906 62.925781 236.128906 62.304688 233.601562 C 61.894531 231.933594 63.539062 231.742188 64.507812 231.527344 C 66.324219 231.121094 68.15625 230.769531 69.820312 229.960938 C 73.839844 228.007812 77.882812 226.066406 81.75 223.839844 C 83.21875 222.988281 83.503906 221.007812 83.972656 219.371094 C 83.992188 219.308594 83.984375 219.230469 83.976562 219.164062 C 82.277344 205.4375 87.367188 193.097656 91.820312 180.613281 C 97.007812 166.066406 103.015625 151.84375 108.734375 137.507812 C 114.757812 122.40625 120.292969 107.105469 126.417969 92.042969 C 131.324219 79.980469 135.582031 67.652344 141.035156 55.8125 C 142.824219 51.933594 144.742188 48.113281 146.605469 44.269531 C 146.804688 43.855469 147.269531 43.449219 146.878906 42.976562 C 146.578125 42.613281 146.105469 42.90625 145.707031 42.910156 C 141.367188 42.960938 137 43.308594 132.695312 42.933594 C 129.542969 42.660156 126.699219 40.875 124.285156 38.808594 C 119.828125 34.996094 116.410156 30.546875 116.46875 24.253906 C 116.507812 19.691406 120.574219 14.867188 125.121094 14.070312 C 127.105469 13.722656 129.105469 13.714844 131.101562 13.835938 C 133.800781 13.996094 134.8125 15.84375 133.640625 18.296875 C 132.6875 20.285156 130.929688 21.585938 129.457031 23.105469 C 128.3125 24.292969 128.335938 25.292969 129.1875 26.511719 C 131.203125 29.40625 134.023438 30.773438 137.480469 31.21875 C 143.121094 31.949219 147.695312 29.121094 152.464844 26.949219 C 160.074219 23.488281 167.578125 19.660156 175.71875 17.632812 C 187.792969 14.628906 198.9375 17.210938 208.5625 24.996094 C 217.71875 32.402344 223.988281 41.988281 227.679688 53.195312" style="fill: rgb(176, 221, 76);"/>
    </g>
    <g id="__id1244_sin1rmfsm">
      <path d="M 170.851562 93.035156 C 169.679688 92.925781 169.226562 92.148438 168.757812 91.289062 C 166.613281 87.335938 164.199219 83.5625 160.976562 80.390625 C 153.921875 73.453125 145.695312 70.113281 135.652344 72.054688 C 126.574219 73.808594 118.9375 78.304688 111.972656 84.097656 C 98.304688 95.472656 88.679688 109.882812 80.929688 125.691406 C 76.308594 135.125 73.328125 145.199219 69.386719 154.898438 C 60.1875 177.519531 47.230469 197.65625 30 215.015625 C 23.542969 221.519531 16.6875 227.617188 10.496094 234.386719 C 6.757812 238.480469 3.5 242.925781 1.589844 248.195312 C 0.460938 251.308594 -0.546875 254.480469 0.339844 257.863281 C 0.566406 258.738281 0.871094 259.710938 1.902344 259.847656 C 3.007812 259.992188 3.347656 258.960938 3.773438 258.199219 C 7.304688 251.84375 12.769531 247.511719 18.824219 243.800781 C 19.503906 243.386719 20.320312 242.789062 21.101562 243.453125 C 21.84375 244.089844 21.1875 244.863281 20.992188 245.554688 C 19.398438 251.21875 18.425781 256.976562 18.261719 262.859375 C 18.242188 263.644531 17.996094 264.695312 18.949219 265.058594 C 19.855469 265.40625 20.175781 264.382812 20.667969 263.863281 C 24.925781 259.394531 29.640625 255.511719 35.121094 252.617188 C 35.699219 252.316406 36.351562 251.804688 37.027344 252.375 C 37.707031 252.949219 37.296875 253.652344 37.078125 254.28125 C 35.773438 258.097656 35.253906 262.054688 34.9375 266.046875 C 34.828125 267.425781 34.855469 268.816406 35.257812 270.148438 C 35.808594 271.953125 36.636719 272.179688 38.050781 270.941406 C 40 269.234375 41.410156 267.097656 42.660156 264.871094 C 45.09375 260.539062 48.375 256.949219 52.1875 253.824219 C 56.195312 250.53125 60.554688 247.761719 65.070312 245.230469 C 75.902344 239.152344 87.300781 234.25 98.617188 229.175781 C 115.464844 221.621094 132.382812 214.199219 148.0625 204.324219 C 160.390625 196.558594 171.605469 187.492188 180.652344 175.972656 C 190.972656 162.828125 196.878906 148.058594 196.75 128.058594 C 196.539062 123.386719 195.605469 115.742188 192.101562 108.671875 C 187.722656 99.828125 181.03125 94.023438 170.851562 93.035156 Z M 83.085938 242.027344 C 81.695312 242.308594 80.246094 242.277344 78.777344 241.988281 C 74.542969 248.695312 70.871094 255.726562 66.988281 262.636719 C 56.171875 281.871094 44.554688 300.574219 30.792969 317.894531 C 24.671875 325.597656 18.652344 333.429688 14.800781 342.628906 C 14.34375 343.71875 13.976562 344.691406 15.066406 345.605469 C 16.234375 346.578125 17.226562 345.996094 18.242188 345.300781 C 19.085938 344.722656 19.625 343.628906 20.699219 343.484375 C 22.605469 343.222656 23.96875 342.042969 25.308594 340.886719 C 28.488281 338.140625 31.679688 335.402344 34.488281 332.257812 C 34.898438 331.796875 35.21875 331.066406 36.109375 331.214844 C 36.109375 331.445312 36.191406 331.695312 36.101562 331.828125 C 33.273438 336.058594 32.664062 341.195312 30.453125 345.679688 C 29.820312 346.957031 29.425781 348.390625 29.136719 349.796875 C 28.585938 352.492188 30.148438 355.695312 32.5 357.0625 C 33.019531 357.363281 33.511719 357.496094 34.046875 357.171875 C 35.625 356.199219 37.410156 355.570312 38.785156 354.265625 C 41.230469 351.933594 43.554688 349.496094 45.726562 346.90625 C 47.378906 344.941406 49.066406 343.003906 51.039062 340.699219 C 51.320312 342.0625 50.957031 342.578125 50.699219 343.132812 C 49.007812 346.75 47.238281 350.335938 45.660156 354.003906 C 44.414062 356.898438 43.050781 359.816406 43.359375 363.105469 C 43.46875 364.277344 43.527344 365.371094 43.175781 366.554688 C 42.667969 368.261719 43.832031 369.429688 45.003906 370.417969 C 46.203125 371.425781 47.054688 370.28125 47.898438 369.695312 C 51.988281 366.851562 54.929688 362.953125 57.664062 358.871094 C 58.039062 358.308594 58.15625 357.117188 59.152344 357.558594 C 60.023438 357.945312 59.410156 358.902344 59.335938 359.609375 C 59.316406 359.8125 59.226562 360.007812 59.167969 360.207031 C 57.867188 364.714844 57.011719 369.3125 56.523438 373.976562 C 56.296875 376.125 57.007812 377.867188 58.523438 379.386719 C 59.652344 380.515625 60.683594 380.671875 61.902344 379.558594 C 65.914062 375.878906 69.390625 371.648438 71.21875 366.585938 C 75.753906 354.019531 79.824219 341.28125 84.082031 328.613281 C 91.285156 307.175781 99.339844 286.101562 109.3125 265.746094 C 113.835938 256.519531 118.289062 247.253906 122.753906 237.992188 C 116.796875 239.226562 110.777344 240.101562 104.710938 240.640625 C 97.851562 241.253906 91 242.050781 83.085938 242.027344 Z M 398.382812 239.683594 C 398.394531 241.203125 397.75 241.789062 396.277344 241.765625 C 393.59375 241.722656 390.90625 241.753906 388.222656 241.753906 C 375.519531 241.070312 362.917969 239.699219 350.519531 236.894531 C 342.359375 235.050781 334.773438 231.636719 327.160156 228.144531 C 316.140625 223.089844 305.480469 217.527344 296.265625 209.628906 C 279.875 195.570312 268.839844 177.992188 262.828125 157.253906 C 260.09375 147.808594 258.617188 138.140625 258.582031 128.347656 C 258.539062 117.476562 259.328125 106.660156 262.605469 96.144531 C 263.523438 93.1875 265.050781 90.507812 265.777344 87.453125 C 266.894531 82.761719 266.992188 78.242188 265.308594 73.707031 C 264.816406 72.382812 264.507812 71.1875 265.835938 69.964844 C 266.933594 68.957031 265.34375 68.378906 264.976562 67.621094 C 264.5625 66.761719 263.894531 66.960938 263.289062 67.503906 C 261.957031 68.695312 260.5625 69.832031 259.3125 71.105469 C 258.398438 72.035156 257.796875 72.363281 256.945312 71.027344 C 255.152344 68.222656 252.582031 67.300781 249.277344 67.871094 C 245.804688 68.476562 243.90625 66.953125 243.445312 63.445312 C 243.058594 60.472656 243.148438 57.460938 244.082031 54.632812 C 248.582031 41.015625 256.527344 29.828125 268.816406 22.328125 C 278.285156 16.550781 288.738281 15.257812 299.726562 17.488281 C 304.824219 18.523438 309.242188 20.898438 313.910156 22.855469 C 318.816406 24.914062 323.835938 26.753906 329.089844 27.78125 C 331.175781 28.191406 333.160156 27.863281 334.996094 26.667969 C 337.488281 25.046875 339.734375 23.113281 341.984375 21.199219 C 343.871094 19.589844 344.984375 13.894531 344.042969 11.675781 C 343.605469 10.652344 342.550781 10.511719 341.695312 10.15625 C 339.460938 9.226562 337.289062 8.222656 335.675781 6.324219 C 334.269531 4.671875 334.363281 3.5625 336.1875 2.46875 C 340.144531 0.0859375 344.527344 -0.503906 348.933594 0.414062 C 353.175781 1.296875 355.082031 4.914062 356.386719 8.585938 C 358.382812 14.214844 357.023438 19.648438 354.8125 24.96875 C 351.367188 33.253906 344.800781 38.003906 336.75 41.074219 C 334.777344 41.828125 332.648438 41.363281 330.59375 41.464844 C 329.488281 41.523438 329.097656 41.792969 329.773438 42.972656 C 335.859375 53.578125 340.628906 64.796875 345.269531 76.085938 C 353.152344 95.269531 361.1875 114.394531 369.125 133.554688 C 375.585938 149.152344 382.699219 164.472656 388.585938 180.308594 C 391.199219 187.351562 393.5625 194.476562 396.054688 201.554688 C 397.019531 204.292969 396.882812 206.867188 397.105469 209.546875 C 397.472656 213.945312 396.066406 218.511719 398.3125 222.742188 C 398.367188 222.855469 398.34375 223.011719 398.347656 223.152344 C 398.351562 228.660156 398.332031 234.175781 398.382812 239.683594" style="fill: rgb(248, 155, 43);"/>
    </g>
    <g id="__id1245_sin1rmfsm">
      <path d="M 472.324219 269.753906 C 471.996094 270.582031 471.59375 271.507812 470.535156 271.550781 C 469.4375 271.597656 469.089844 270.644531 468.71875 269.832031 C 465.566406 262.957031 460.167969 258.105469 454.246094 253.726562 C 453.972656 253.523438 453.644531 253.390625 453.34375 253.230469 C 452.855469 252.980469 452.355469 252.59375 451.8125 252.992188 C 451.1875 253.445312 451.425781 254.09375 451.566406 254.695312 C 452.683594 259.417969 452.960938 264.234375 453.101562 269.054688 C 453.140625 270.492188 452.96875 271.941406 452.839844 273.382812 C 452.789062 273.984375 452.765625 274.726562 452.039062 274.921875 C 451.269531 275.132812 451 274.394531 450.640625 273.929688 C 447.070312 269.308594 442.777344 265.449219 438.105469 261.992188 C 437.335938 261.425781 436.492188 260.9375 435.648438 260.472656 C 435.179688 260.214844 434.617188 259.9375 434.089844 260.285156 C 433.421875 260.730469 433.695312 261.402344 433.84375 261.980469 C 434.851562 265.882812 435.175781 269.851562 435.058594 273.859375 C 435.011719 275.59375 434.753906 277.273438 433.914062 278.84375 C 433.273438 280.039062 432.769531 280.402344 431.695312 279.15625 C 430.433594 277.6875 429.113281 276.242188 428.328125 274.480469 C 423.785156 264.324219 415.832031 257.324219 406.917969 251.214844 C 395.304688 243.257812 382.855469 236.71875 370.53125 229.96875 C 356.152344 222.089844 341.757812 214.234375 328.199219 204.976562 C 312.363281 194.160156 298.132812 181.695312 287.8125 165.265625 C 283.113281 157.78125 279.824219 149.71875 278.011719 141.066406 C 277.785156 139.996094 277.664062 138.882812 277.65625 137.785156 C 277.621094 131.929688 277.265625 126.042969 277.71875 120.222656 C 278.472656 110.574219 281.707031 101.777344 288.703125 94.769531 C 293.90625 89.558594 300.3125 86.964844 307.679688 86.949219 C 309.203125 86.945312 310.066406 86.382812 310.890625 85.214844 C 315.320312 78.898438 320.6875 73.65625 328.035156 70.816406 C 331.53125 69.46875 335.152344 68.664062 339.578125 68.679688 C 348.339844 69.152344 356.527344 72.824219 363.960938 78.390625 C 376.347656 87.671875 385.246094 99.828125 392.578125 113.269531 C 399.226562 125.453125 403.417969 138.527344 407.046875 151.871094 C 415.074219 181.40625 429.644531 207.355469 450.398438 229.867188 C 455.949219 235.890625 461.660156 241.804688 466.339844 248.578125 C 469.425781 253.039062 471.75 257.847656 472.726562 263.242188 C 473.125 265.453125 473.164062 267.636719 472.324219 269.753906" style="fill: rgb(64, 31, 55);"/>
    </g>
    <g id="__id1246_sin1rmfsm">
      <path d="M 122.875 198.914062 C 116.960938 203.976562 111.082031 209.066406 104.449219 213.226562 C 93.8125 219.898438 83.039062 226.191406 70.324219 228.074219 C 69.03125 228.269531 68.765625 229.167969 69.585938 230.183594 C 70.757812 231.628906 72.339844 232.1875 74.625 232.015625 C 74.730469 232.015625 75.28125 232.050781 75.828125 232.003906 C 76.164062 231.976562 76.492188 231.828125 76.820312 231.722656 C 87.417969 228.296875 97.546875 223.925781 106.683594 217.410156 C 113.460938 212.578125 119.964844 207.527344 124.21875 200.164062 C 124.617188 199.480469 125.484375 198.546875 124.847656 197.96875 C 124.085938 197.277344 123.429688 198.441406 122.875 198.914062 Z M 166.640625 27.511719 C 165.367188 27.726562 164.113281 28.089844 162.875 28.464844 C 158.65625 29.730469 155.0625 32.417969 150.886719 33.773438 C 144.402344 35.882812 137.945312 36.867188 131.554688 33.414062 C 130.597656 32.898438 129.511719 32.617188 128.492188 32.214844 C 127.671875 31.886719 126.742188 31.71875 126.246094 32.53125 C 125.648438 33.5 126.65625 34.007812 127.269531 34.429688 C 131.496094 37.355469 135.824219 40.035156 140.566406 39.355469 C 147.257812 39.5625 152.691406 37.769531 157.902344 35.148438 C 160.660156 33.761719 163.378906 32.300781 166.445312 31.679688 C 167.136719 31.542969 167.789062 31.25 168.195312 30.667969 C 168.703125 29.945312 169.300781 29.152344 168.839844 28.210938 C 168.390625 27.296875 167.425781 27.375 166.640625 27.511719 Z M 153.304688 174.785156 C 153.171875 174.816406 153.046875 174.871094 152.910156 174.90625 C 150.695312 175.476562 150.640625 175.429688 150.632812 173.085938 C 150.628906 172 150.886719 170.695312 149.238281 170.621094 C 147.859375 170.558594 146.640625 170.902344 146.25 172.535156 C 145.960938 173.746094 145.765625 174.960938 145.753906 175.984375 C 145.519531 180.363281 147.878906 182.148438 151.789062 180.789062 C 152.765625 180.449219 153.769531 180.203125 154.730469 179.824219 C 155.945312 179.34375 157.492188 176.503906 156.96875 175.5625 C 156.097656 173.996094 154.648438 174.480469 153.304688 174.785156 Z M 126.953125 179.554688 C 126.347656 179.398438 126.136719 179.9375 125.890625 180.335938 C 125.09375 181.617188 124.335938 182.929688 123.523438 184.203125 C 118.632812 191.867188 111.710938 197.335938 104.160156 202.132812 C 103.519531 202.539062 102.425781 202.800781 102.847656 203.90625 C 103.257812 204.972656 104.035156 205.753906 105.3125 205.761719 C 106.128906 205.785156 106.769531 205.351562 107.386719 204.929688 C 110.226562 202.992188 113.207031 201.21875 115.84375 199.035156 C 121.09375 194.6875 125.425781 189.578125 127.546875 182.914062 C 127.78125 182.175781 127.933594 181.445312 127.722656 180.6875 C 127.59375 180.226562 127.492188 179.691406 126.953125 179.554688 Z M 137.78125 132.445312 C 137.648438 132.472656 137.519531 132.542969 137.386719 132.550781 C 135.808594 132.679688 134.28125 134.378906 132.972656 133.679688 C 131.488281 132.886719 132.054688 130.699219 131.644531 129.144531 C 131.402344 128.214844 130.875 127.652344 129.964844 127.617188 C 129.027344 127.582031 128.183594 127.960938 127.859375 128.9375 C 127.667969 129.511719 127.652344 130.148438 127.546875 130.859375 C 127.742188 132.199219 127.832031 133.65625 128.1875 135.039062 C 128.972656 138.082031 131.449219 139.882812 133.839844 139.148438 C 135.671875 138.589844 137.492188 137.921875 139.214844 137.089844 C 140.703125 136.371094 141.503906 134.835938 141.105469 133.324219 C 140.65625 131.640625 139.050781 132.203125 137.78125 132.445312 Z M 319.203125 139.226562 C 321.175781 137.542969 322.625 131.671875 321.703125 129.25 C 321.199219 127.9375 320.386719 127.652344 319.113281 128.136719 C 317.300781 128.824219 316.667969 130.296875 316.5625 132.015625 C 316.453125 133.851562 315.433594 134.179688 313.921875 133.902344 C 312.847656 133.707031 311.777344 133.460938 310.910156 133.277344 C 309.828125 133.410156 308.71875 133.113281 308.296875 134.085938 C 307.855469 135.105469 308.867188 135.683594 309.503906 136.242188 C 311.796875 138.246094 314.652344 139.039062 317.515625 139.785156 C 318.152344 139.949219 318.703125 139.65625 319.203125 139.226562 Z M 132.886719 162.898438 C 131.671875 163.011719 130.371094 164.3125 129.414062 163.765625 C 128.226562 163.09375 129.050781 161.367188 128.808594 160.121094 C 128.609375 159.109375 128.21875 158.402344 127.09375 158.480469 C 126.046875 158.554688 124.9375 158.671875 124.714844 159.992188 C 124.566406 160.871094 124.582031 161.777344 124.496094 163.058594 C 124.496094 163.152344 124.492188 163.632812 124.5 164.117188 C 124.550781 167.6875 127.453125 169.820312 130.816406 168.707031 C 132.054688 168.296875 133.347656 167.910156 134.4375 167.234375 C 135.6875 166.460938 136.832031 165.191406 136.222656 163.65625 C 135.660156 162.242188 134.058594 162.789062 132.886719 162.898438 Z M 164.898438 138.546875 C 163.179688 138.363281 161.660156 138.742188 160.355469 139.992188 C 158.554688 141.714844 158.496094 141.691406 157.320312 139.640625 C 156.746094 138.640625 155.90625 138.425781 154.871094 138.570312 C 154.152344 138.671875 153.308594 138.917969 153.394531 139.714844 C 153.722656 142.601562 153.476562 145.664062 155.773438 148.023438 C 156.992188 149.273438 158.214844 149.484375 159.570312 148.375 C 161.210938 147.023438 162.847656 145.65625 164.421875 144.226562 C 165.535156 143.21875 165.914062 141.789062 166.320312 140.433594 C 166.441406 139.324219 165.992188 138.664062 164.898438 138.546875 Z M 422.15625 332.242188 C 420.632812 328.402344 419.082031 324.570312 417.546875 320.734375 C 417.210938 319.894531 416.714844 319.304688 415.789062 319.359375 C 414.378906 319.320312 413.574219 319.984375 413.886719 321.183594 C 415.140625 325.996094 416.84375 330.648438 419.535156 334.863281 C 419.945312 335.503906 420.53125 336.414062 421.511719 335.980469 C 422.441406 335.566406 422.507812 334.558594 422.46875 333.648438 C 422.449219 333.175781 422.328125 332.6875 422.15625 332.242188 Z M 430.210938 322.222656 C 420.296875 303.90625 409.601562 286.082031 396.625 269.722656 C 394.191406 266.652344 392.070312 263.304688 388.832031 260.949219 C 388.082031 260.402344 387.199219 259.8125 386.425781 260.589844 C 385.613281 261.402344 386.582031 262.082031 387.011719 262.71875 C 396.144531 276.230469 405.9375 289.308594 414.121094 303.449219 C 419.257812 312.328125 425.074219 320.804688 429.722656 329.96875 C 431.117188 332.71875 432.449219 335.5 433.957031 338.558594 C 434.636719 337.515625 434.394531 336.824219 434.375 336.15625 C 434.253906 331.136719 432.542969 326.53125 430.210938 322.222656 Z M 331.085938 170.898438 C 329.089844 170.410156 327.628906 171.292969 327.109375 173.292969 C 326.902344 174.089844 326.675781 174.890625 326.339844 175.636719 C 325.320312 177.894531 324.863281 177.988281 322.910156 176.523438 C 321.710938 175.621094 320.5625 174.554688 318.890625 174.722656 C 318.21875 174.792969 317.4375 174.820312 317.070312 175.496094 C 316.660156 176.246094 317.273438 176.8125 317.6875 177.316406 C 318.679688 178.542969 319.695312 179.757812 320.789062 180.894531 C 322.117188 182.277344 323.734375 183.128906 325.5 183.085938 C 326.832031 183.242188 327.722656 182.84375 328.453125 182.003906 C 330.730469 179.386719 332.03125 176.351562 332.382812 172.90625 C 332.484375 171.910156 332.175781 171.164062 331.085938 170.898438 Z M 438.71875 228.9375 C 435.941406 228.378906 434.210938 226.484375 432.433594 224.535156 C 430.300781 222.199219 428.082031 219.933594 425.84375 217.691406 C 420.550781 212.398438 415.789062 206.769531 413.039062 199.640625 C 408.289062 187.308594 403.316406 175.066406 399.371094 162.4375 C 397.039062 154.964844 392.988281 148.429688 387.539062 142.789062 C 386.859375 142.089844 386.132812 141.453125 385.160156 141.210938 C 384.46875 141.039062 383.726562 141.027344 383.265625 141.648438 C 382.75 142.335938 383.425781 142.765625 383.800781 143.222656 C 388.027344 148.382812 391.46875 154.039062 393.507812 160.382812 C 397.621094 173.164062 402.03125 185.824219 406.945312 198.324219 C 410.113281 206.386719 414.191406 213.714844 420.753906 219.5625 C 423.304688 221.835938 425.980469 223.972656 428.804688 226.5 C 427.394531 226.835938 426.636719 226.195312 425.792969 226.007812 C 419.765625 224.671875 414.375 222.148438 410.027344 217.585938 C 406.886719 214.289062 403.9375 210.839844 401.035156 207.34375 C 400.289062 206.441406 399.542969 205.511719 398.480469 204.96875 C 397.699219 204.570312 396.800781 204.53125 396.1875 205.226562 C 395.570312 205.917969 396.277344 206.480469 396.640625 207.035156 C 397.421875 208.246094 398.175781 209.484375 399.007812 210.664062 C 403.0625 216.417969 407.175781 222.179688 413.269531 225.976562 C 420.910156 230.734375 429.445312 231.820312 438.265625 231.378906 C 439.070312 231.335938 440.136719 231.464844 440.339844 230.472656 C 440.558594 229.417969 439.390625 229.070312 438.71875 228.9375 Z M 340.253906 140.382812 C 341.492188 140.910156 342.730469 140.96875 343.585938 139.753906 C 345.515625 137.023438 346.554688 133.914062 347.1875 130.980469 C 347.230469 130.003906 347.054688 129.453125 346.4375 129.097656 C 345.03125 128.289062 342.578125 129.230469 342.027344 130.800781 C 341.6875 131.769531 341.324219 132.734375 341.019531 133.714844 C 340.628906 134.960938 340.046875 135.484375 338.804688 134.5625 C 338.382812 134.253906 337.8125 134.054688 337.289062 133.996094 C 336.554688 133.914062 335.691406 133.847656 335.226562 134.582031 C 334.746094 135.34375 335.269531 136.035156 335.703125 136.640625 C 336.886719 138.289062 338.375 139.589844 340.253906 140.382812 Z M 348.769531 153.703125 C 347.371094 154.160156 346.777344 155.15625 346.398438 156.53125 C 345.457031 159.949219 344.078125 160.460938 341.292969 158.445312 C 339.980469 157.496094 338.667969 157.347656 337.214844 157.84375 C 336.449219 158.109375 336.140625 158.609375 336.421875 159.449219 C 337.164062 161.664062 342.359375 165.476562 344.847656 165.460938 C 345.070312 165.394531 345.484375 165.328125 345.851562 165.160156 C 348.445312 163.984375 351.828125 158.386719 351.640625 155.621094 C 351.527344 154.007812 350.292969 153.203125 348.769531 153.703125 Z M 411.933594 332.859375 C 408.285156 321.007812 403.894531 309.414062 399.71875 297.746094 C 399.375 296.785156 398.820312 295.886719 398.265625 295.023438 C 397.796875 294.28125 397.070312 293.789062 396.15625 294.171875 C 395.0625 294.628906 395.519531 295.496094 395.714844 296.292969 C 397.867188 305 400.894531 313.429688 403.933594 321.851562 C 405.941406 327.417969 407.699219 333.085938 410.246094 338.445312 C 410.554688 339.09375 410.804688 340.117188 411.6875 339.992188 C 412.746094 339.84375 412.492188 338.730469 412.625 337.957031 C 412.660156 337.757812 412.632812 337.542969 412.628906 337.335938 C 412.519531 335.824219 412.382812 334.324219 411.933594 332.859375 Z M 376.046875 223.160156 C 375.234375 222.140625 374.382812 221.136719 373.433594 220.242188 C 365.921875 213.179688 360.976562 204.539062 357.882812 194.796875 C 356.21875 189.554688 355.1875 184.117188 352.953125 179.054688 C 352.570312 178.179688 352.152344 177.339844 351.015625 177.675781 C 349.878906 178.007812 349.914062 178.984375 350.105469 179.890625 C 350.453125 181.507812 350.929688 183.09375 351.257812 184.710938 C 353.105469 193.785156 355.507812 202.636719 360.480469 210.621094 C 364.488281 217.0625 369.679688 222.039062 376.957031 224.980469 C 376.945312 224.03125 376.410156 223.617188 376.046875 223.160156 Z M 405.621094 352.4375 C 405.746094 349.992188 405.175781 347.628906 404.613281 345.300781 C 401.265625 331.375 396.613281 317.8125 393.039062 303.945312 C 390.433594 293.84375 386.023438 284.386719 381.960938 274.816406 C 381.210938 273.042969 380.347656 271.308594 379.148438 269.773438 C 378.757812 269.269531 378.300781 268.753906 377.601562 269.035156 C 376.78125 269.367188 376.894531 270.117188 377.042969 270.8125 C 377.117188 271.148438 377.253906 271.46875 377.34375 271.800781 C 379.324219 278.90625 381.964844 285.789062 384.542969 292.691406 C 389.4375 305.804688 392.03125 319.605469 396.539062 332.828125 C 398.828125 339.535156 400.371094 346.496094 403.367188 352.957031 C 403.8125 353.917969 403.953125 355.738281 405.253906 355.46875 C 406.074219 355.300781 405.527344 353.5 405.621094 352.4375 Z M 107.875 148.277344 C 108.707031 149.019531 109.800781 149.566406 110.914062 149.242188 C 113.710938 148.425781 116.007812 146.839844 117.273438 144.128906 C 117.945312 142.691406 117.226562 141.910156 115.691406 141.847656 C 114.097656 141.78125 112.734375 142.332031 111.578125 143.417969 C 110.363281 144.558594 109.640625 143.988281 109.175781 142.699219 C 109.015625 142.257812 108.949219 141.765625 108.917969 141.292969 C 108.828125 139.953125 108.601562 138.769531 106.84375 138.882812 C 105.101562 138.996094 104.445312 140.003906 104.554688 141.660156 C 104.726562 144.324219 105.90625 146.519531 107.875 148.277344 Z M 344.03125 106.820312 C 343.617188 107.707031 344.25 108.421875 344.792969 109.019531 C 346.132812 110.503906 347.59375 111.867188 349.359375 112.832031 C 351.585938 114.042969 352.945312 113.621094 354.050781 111.363281 C 355.191406 109.027344 355.507812 106.519531 355.425781 103.40625 C 355.425781 103.261719 355.414062 102.574219 355.429688 101.886719 C 355.472656 100.066406 354.644531 99.269531 352.78125 99.378906 C 350.378906 99.523438 350.027344 99.957031 349.964844 103.28125 C 349.945312 104.308594 350.214844 105.574219 349.71875 106.300781 C 348.921875 107.464844 348.003906 105.789062 347.03125 105.902344 C 346.695312 105.941406 346.339844 105.867188 346.011719 105.925781 C 345.277344 106.0625 344.394531 106.050781 344.03125 106.820312 Z M 314.222656 32.148438 C 318.066406 36.007812 322.480469 38.527344 327.957031 37.824219 C 333.925781 38.59375 338.511719 35.609375 343.234375 33.128906 C 344.230469 32.605469 344.632812 31.488281 345.042969 30.445312 C 345.671875 28.851562 345.15625 28.128906 343.476562 27.992188 C 341.027344 27.792969 338.890625 28.65625 336.828125 29.796875 C 331.308594 32.855469 325.675781 33.15625 319.859375 30.640625 C 318.421875 30.019531 316.929688 29.394531 315.304688 29.464844 C 314.570312 29.492188 313.609375 29.296875 313.234375 30.066406 C 312.792969 30.980469 313.667969 31.589844 314.222656 32.148438 Z M 361.484375 145.855469 C 367.269531 149.34375 370.691406 150.089844 372.957031 143.332031 C 373.285156 142.359375 373.683594 141.230469 372.714844 140.460938 C 371.761719 139.707031 370.238281 139.757812 369.648438 140.542969 C 367.734375 143.082031 365.675781 143.992188 363.21875 142.027344 C 361.863281 142.3125 360.605469 142.066406 360.164062 143.246094 C 359.765625 144.3125 360.777344 144.960938 361.339844 145.710938 C 361.378906 145.765625 361.429688 145.820312 361.484375 145.855469 Z M 376.324219 126.832031 C 377.976562 128.535156 379.917969 129.757812 382.25 130.351562 C 383.890625 130.769531 385.054688 130.324219 385.839844 128.8125 C 386.957031 126.65625 387.472656 124.320312 387.863281 121.960938 C 388.054688 120.835938 387.914062 119.609375 386.445312 119.445312 C 385.070312 119.289062 383.617188 119.34375 383.007812 120.972656 C 382.722656 121.734375 382.550781 122.554688 382.421875 123.363281 C 382.179688 124.867188 381.621094 125.511719 380.113281 124.515625 C 379.375 124.023438 378.535156 123.667969 377.589844 123.777344 C 376.78125 123.847656 375.8125 123.710938 375.378906 124.554688 C 374.855469 125.5625 375.730469 126.222656 376.324219 126.832031 Z M 371.5625 196.1875 C 368.929688 189.921875 366.277344 183.660156 363.613281 177.402344 C 363.304688 176.671875 362.824219 176.023438 361.882812 176.402344 C 360.875 176.8125 360.9375 177.621094 361.253906 178.476562 C 362.957031 183.121094 364.566406 187.8125 366.890625 192.195312 C 367.980469 194.257812 369.289062 196.203125 370.511719 198.191406 C 370.726562 198.546875 371.011719 198.90625 371.484375 198.804688 C 372.042969 198.683594 371.890625 198.183594 371.929688 197.652344 C 371.828125 197.246094 371.769531 196.6875 371.5625 196.1875 Z M 378.335938 212.207031 C 377.589844 211.800781 376.636719 211.554688 376.0625 212.320312 C 375.445312 213.140625 376.359375 213.6875 376.84375 214.195312 C 384.582031 222.34375 393.582031 228.683594 403.992188 232.960938 C 408.320312 234.734375 412.746094 236.199219 417.441406 236.621094 C 418.863281 236.730469 420.144531 236.09375 421.5 235.886719 C 421.914062 235.820312 422.359375 235.625 422.429688 235.183594 C 422.515625 234.636719 421.96875 234.609375 421.605469 234.449219 C 420.027344 233.734375 418.320312 233.464844 416.65625 233.035156 C 404.320312 229.847656 393.355469 224 383.554688 215.902344 C 381.90625 214.539062 380.21875 213.234375 378.335938 212.207031 Z M 372.519531 160.605469 C 371.226562 160.847656 371.308594 161.90625 371.3125 162.910156 C 371.5625 164.683594 371.8125 166.457031 372.066406 168.230469 C 373.761719 180.101562 376.542969 191.628906 382.675781 202.117188 C 385.515625 206.972656 388.84375 211.40625 393.25 214.960938 C 393.695312 215.320312 394.203125 216.050781 394.824219 215.53125 C 395.445312 215.011719 394.8125 214.351562 394.535156 213.871094 C 393.269531 211.660156 391.9375 209.488281 390.605469 207.316406 C 385.164062 198.46875 380.539062 189.285156 378.355469 179.019531 C 377.167969 173.433594 375.761719 167.890625 374.421875 162.339844 C 374.1875 161.386719 373.800781 160.367188 372.519531 160.605469 Z M 70.324219 298.9375 C 70.683594 298.378906 71.253906 297.757812 70.59375 297.09375 C 69.996094 296.496094 69.289062 296.863281 68.667969 297.144531 C 67.269531 297.777344 66.554688 299.097656 65.71875 300.257812 C 57.730469 311.324219 50.777344 323.074219 43.253906 334.449219 C 42.191406 336.054688 40.960938 337.664062 40.46875 340.210938 C 43.296875 338.339844 45.335938 336.363281 47.097656 334.089844 C 52.425781 327.21875 57.003906 319.847656 61.570312 312.464844 C 64.394531 307.898438 67.410156 303.445312 70.324219 298.9375 Z M 43.84375 319.257812 C 48.339844 314.855469 51.855469 309.628906 55.75 304.726562 C 60.761719 298.417969 65.515625 291.902344 69.21875 284.703125 C 70.101562 282.988281 70.867188 281.21875 71.292969 279.375 C 71.449219 277.980469 70.714844 277.574219 69.550781 277.738281 C 68.488281 277.886719 67.902344 278.644531 67.453125 279.546875 C 63.289062 287.847656 57.714844 295.210938 52.011719 302.472656 C 48.21875 307.292969 44.371094 312.070312 41.480469 317.511719 C 40.832031 318.734375 39.363281 320.640625 40.355469 321.34375 C 41.71875 322.316406 42.835938 320.242188 43.84375 319.257812 Z M 101.046875 158.550781 C 101.019531 158.070312 101.035156 157.589844 101.019531 157.109375 C 100.992188 156.296875 101.144531 155.316406 100.03125 155.136719 C 98.890625 154.953125 98.285156 155.699219 97.929688 156.699219 C 97.367188 158.277344 97.566406 159.964844 97.269531 161.375 C 97.164062 162.578125 97.460938 163.464844 98.007812 164.296875 C 99.910156 167.191406 102.402344 167.460938 105.992188 165.019531 C 107.132812 164.242188 108.914062 163.394531 108.210938 161.765625 C 107.519531 160.164062 105.644531 160.855469 104.308594 161.097656 C 101.464844 161.621094 101.222656 161.515625 101.046875 158.550781 Z M 43.574219 225.65625 C 47.164062 223.914062 50.617188 221.925781 53.925781 219.660156 C 68.160156 209.921875 80.089844 197.777344 90.910156 184.460938 C 91.347656 183.925781 92.257812 183.355469 91.5 182.554688 C 90.878906 181.902344 90.089844 182.339844 89.402344 182.695312 C 86.847656 184.027344 84.839844 186.027344 83.011719 188.175781 C 74.265625 198.464844 64.207031 207.332031 53.492188 215.488281 C 53.089844 215.796875 52.738281 216.324219 51.6875 215.996094 C 54.574219 212.144531 57.328125 208.460938 60.09375 204.785156 C 65.695312 197.335938 70.949219 189.699219 73.714844 180.632812 C 76.582031 171.234375 78.773438 161.648438 81.910156 152.324219 C 84.425781 144.847656 87.984375 138 93.5 132.308594 C 95.695312 130.046875 98.066406 127.886719 101.371094 127.285156 C 101.808594 127.203125 102.222656 127.035156 102.085938 126.503906 C 101.96875 126.046875 101.523438 125.976562 101.09375 125.921875 C 99.050781 125.664062 97.324219 126.601562 95.628906 127.46875 C 89.351562 130.675781 85.207031 136.015625 81.941406 141.988281 C 77.386719 150.320312 74.820312 159.4375 72.417969 168.570312 C 69.9375 178.011719 67.109375 187.292969 61.097656 195.195312 C 54.269531 204.171875 48.460938 213.890625 41.15625 222.519531 C 40.371094 223.445312 39.441406 224.394531 40.632812 225.746094 C 41.703125 226.957031 42.71875 226.070312 43.574219 225.65625 Z M 79.675781 321.777344 C 79.019531 321.273438 78.351562 321.554688 77.785156 322 C 76.722656 322.835938 76.160156 324.042969 75.554688 325.195312 C 71.078125 333.6875 67.902344 342.738281 64.257812 351.582031 C 63.734375 352.847656 63.484375 354.222656 63.175781 355.304688 C 63.121094 356.527344 63.613281 357.269531 64.46875 357.441406 C 65.828125 357.710938 66.179688 356.457031 66.546875 355.566406 C 70.972656 344.878906 74.898438 333.984375 79.730469 323.464844 C 79.988281 322.902344 80.316406 322.269531 79.675781 321.777344 Z M 97.328125 253.96875 C 96.382812 253.441406 96.148438 254.628906 95.742188 255.160156 C 94.066406 257.375 92.945312 259.902344 91.886719 262.445312 C 86.902344 274.386719 82.242188 286.460938 76.441406 298.058594 C 71.453125 308.027344 66.816406 318.175781 61.898438 328.183594 C 58.347656 335.410156 54.582031 342.53125 50.929688 349.710938 C 50.148438 351.25 49.546875 352.863281 49.296875 354.460938 C 49.300781 355.214844 49.273438 355.914062 49.933594 356.214844 C 50.675781 356.554688 51.050781 355.914062 51.417969 355.429688 C 51.75 354.988281 52.074219 354.535156 52.339844 354.054688 C 58.675781 342.617188 65.089844 331.226562 70.519531 319.308594 C 78.421875 301.964844 87.289062 285.046875 93.34375 266.898438 C 94.5625 263.242188 96.046875 259.679688 97.332031 256.050781 C 97.5625 255.402344 98.121094 254.410156 97.328125 253.96875 Z M 100.886719 191.34375 C 101.457031 190.417969 101.8125 189.363281 102.273438 188.355469 C 102.128906 188.046875 102.085938 187.691406 101.902344 187.597656 C 101.355469 187.304688 101 187.773438 100.675781 188.089844 C 95.820312 192.816406 90.371094 196.734375 84.480469 200.066406 C 83.777344 200.460938 82.898438 200.941406 83.476562 201.976562 C 84.019531 202.945312 84.898438 203.640625 86.039062 203.050781 C 91.722656 200.089844 97.378906 197.058594 100.886719 191.34375 Z M 88.042969 206.964844 C 85.785156 208.046875 83.765625 209.511719 81.90625 211.140625 C 74.308594 217.808594 65.496094 222.457031 56.40625 226.664062 C 55.640625 227.019531 54.363281 227.132812 54.683594 228.277344 C 54.96875 229.308594 56.117188 229.65625 57.253906 229.761719 C 57.546875 229.679688 57.875 229.578125 58.207031 229.484375 C 63.710938 227.980469 68.644531 225.222656 73.523438 222.382812 C 79.65625 218.808594 84.882812 214.140625 89.457031 208.734375 C 89.925781 208.179688 90.671875 207.46875 90.105469 206.761719 C 89.539062 206.054688 88.722656 206.640625 88.042969 206.964844 Z M 270.5 40.34375 C 268.566406 40.34375 267 41.910156 267 43.84375 C 267 45.773438 268.566406 47.34375 270.5 47.34375 C 272.433594 47.34375 274 45.773438 274 43.84375 C 274 41.910156 272.433594 40.34375 270.5 40.34375 Z M 205 46.34375 C 205 48.550781 203.210938 50.34375 201 50.34375 C 198.789062 50.34375 197 48.550781 197 46.34375 C 197 44.132812 198.789062 42.34375 201 42.34375 C 203.210938 42.34375 205 44.132812 205 46.34375" style="fill: rgb(253, 241, 194);"/>
    </g>
    <g id="__id1247_sin1rmfsm">
      <path d="M 197.636719 44.835938 C 197.601562 46.132812 198.386719 46.859375 199.628906 46.867188 C 200.800781 46.871094 201.550781 46.152344 201.554688 44.949219 C 201.5625 43.742188 200.796875 43.140625 199.65625 42.988281 C 198.464844 43.058594 197.671875 43.613281 197.636719 44.835938 Z M 191.785156 42.714844 C 191.441406 41.625 192.417969 41.140625 193.21875 40.730469 C 195.050781 39.792969 196.996094 39.472656 199.070312 39.394531 C 204.59375 39.191406 207.628906 41.976562 207.660156 47.519531 C 208.230469 50.535156 205.039062 53.765625 202.660156 54.242188 C 200.304688 54.714844 197.210938 52.816406 195.941406 50.15625 C 195.269531 48.757812 195.144531 47.253906 194.929688 45.769531 C 194.835938 45.132812 194.859375 44.757812 193.992188 44.847656 C 192.53125 45 192.109375 43.738281 191.785156 42.714844 Z M 269.515625 43.105469 C 269.519531 44.308594 270.269531 45.023438 271.441406 45.019531 C 272.683594 45.015625 273.46875 44.289062 273.433594 42.992188 C 273.394531 41.769531 272.605469 41.214844 271.410156 41.144531 C 270.273438 41.296875 269.507812 41.898438 269.515625 43.105469 Z M 263.410156 45.675781 C 263.4375 40.132812 266.476562 37.347656 272 37.550781 C 274.074219 37.628906 276.019531 37.949219 277.851562 38.886719 C 278.648438 39.296875 279.628906 39.78125 279.28125 40.871094 C 278.960938 41.894531 278.539062 43.15625 277.078125 43.003906 C 276.210938 42.914062 276.230469 43.289062 276.140625 43.925781 C 275.925781 45.410156 275.796875 46.914062 275.128906 48.3125 C 273.859375 50.972656 270.765625 52.867188 268.410156 52.394531 C 266.03125 51.917969 262.839844 48.691406 263.410156 45.675781 Z M 239.101562 10.632812 C 237.03125 11.253906 235.375 12.382812 233.984375 13.9375 C 233.285156 14.722656 232.886719 15.125 231.914062 14.144531 C 230.382812 12.597656 226.984375 12.417969 225.378906 13.566406 C 223.980469 14.566406 223.4375 17.386719 224.472656 19.445312 C 226.242188 22.96875 228.855469 25.902344 231.453125 28.824219 C 232.449219 29.945312 233.800781 29.9375 235.082031 29.433594 C 239.546875 27.6875 244.878906 19.714844 244.875 14.875 C 244.871094 10.882812 242.894531 9.5 239.101562 10.632812 Z M 167.523438 255.722656 C 163.785156 252.347656 159.679688 249.453125 155.480469 246.6875 C 155.105469 246.441406 154.449219 246.367188 154.699219 245.703125 C 154.878906 245.234375 155.394531 245.359375 155.789062 245.34375 C 157.511719 245.28125 159.230469 245.238281 160.953125 245.160156 C 162.671875 245.082031 164.394531 245.007812 166.109375 244.847656 C 167.070312 244.757812 167.824219 244.152344 168.085938 243.246094 C 168.347656 242.351562 167.457031 242.074219 166.859375 241.863281 C 162.191406 240.222656 157.429688 239.367188 152.511719 240.558594 C 149.914062 241.183594 149.667969 241.09375 148.59375 238.714844 C 147.003906 235.199219 145.21875 231.777344 143.054688 228.574219 C 142.339844 227.515625 141.089844 226.867188 140.011719 227.40625 C 138.882812 227.972656 139.515625 229.363281 139.621094 230.402344 C 139.660156 230.78125 139.980469 231.132812 140.164062 231.503906 C 141.859375 234.890625 143.546875 238.277344 145.246094 241.664062 C 145.660156 242.492188 145.925781 243.28125 145.339844 244.183594 C 143.460938 247.089844 142.449219 250.429688 140.808594 253.457031 C 140.519531 253.988281 140.402344 254.613281 140.222656 255.144531 C 140.351562 255.707031 140.394531 256.199219 140.582031 256.632812 C 140.980469 257.542969 141.035156 258.882812 142.257812 259.019531 C 143.339844 259.136719 143.816406 257.996094 144.347656 257.230469 C 145.902344 254.960938 147.339844 252.636719 148.179688 249.957031 C 148.886719 247.710938 149.179688 247.722656 150.902344 249.203125 C 155.304688 252.988281 159.988281 256.339844 165.398438 258.597656 C 166.664062 259.125 167.496094 258.863281 168.28125 257.894531 C 169.195312 256.769531 168.105469 256.246094 167.523438 255.722656 Z M 338.421875 229.566406 C 339.214844 227.953125 338.652344 227.21875 336.894531 227.289062 C 335.253906 227.351562 334.253906 228.355469 333.488281 229.644531 C 331.667969 232.722656 329.648438 235.710938 328.335938 239.046875 C 327.640625 240.820312 326.566406 241.132812 324.964844 240.699219 C 319.796875 239.304688 314.753906 240.183594 309.757812 241.59375 C 308.960938 241.816406 307.757812 242.011719 307.863281 243.148438 C 307.976562 244.308594 308.984375 244.808594 310.113281 244.882812 C 311.96875 245.003906 313.824219 245.09375 315.679688 245.199219 C 315.679688 245.246094 315.679688 245.296875 315.679688 245.34375 C 317.328125 245.34375 318.980469 245.328125 320.632812 245.355469 C 321.132812 245.359375 321.867188 245.097656 321.992188 245.863281 C 322.085938 246.449219 321.394531 246.507812 321.003906 246.75 C 316.746094 249.414062 312.59375 252.230469 308.679688 255.386719 C 307.859375 256.046875 307.085938 256.835938 307.828125 258.019531 C 308.582031 259.226562 309.558594 258.976562 310.707031 258.53125 C 316.558594 256.269531 321.652344 252.800781 326.429688 248.820312 C 327.589844 247.855469 328.246094 248.074219 328.683594 249.398438 C 329.574219 252.101562 330.90625 254.574219 332.660156 256.804688 C 333.417969 257.761719 333.878906 259.324219 335.539062 258.980469 C 336.4375 258.796875 337.453125 255.757812 337.144531 254.546875 C 337.027344 254.089844 336.804688 253.648438 336.589844 253.21875 C 335.855469 251.738281 335.324219 250.089844 334.316406 248.828125 C 330.722656 244.347656 331.90625 240.28125 334.871094 236.085938 C 336.289062 234.074219 337.328125 231.785156 338.421875 229.566406 Z M 229.078125 55.917969 C 228.707031 54.59375 228.085938 53.355469 227.335938 52.183594 C 226.78125 51.308594 226.074219 50.875 225.023438 50.6875 C 221.882812 50.121094 218.765625 50.109375 215.59375 50.460938 C 213.875 50.648438 212.996094 51.441406 212.578125 53.027344 C 212.0625 54.953125 211.613281 56.921875 210.875 58.765625 C 209.96875 61.023438 209.503906 63.632812 207.257812 65.089844 C 202.800781 67.984375 197.554688 67.519531 193.636719 63.96875 C 192.976562 63.371094 192.410156 62.664062 191.746094 62.066406 C 190.785156 61.203125 189.617188 61.304688 188.6875 61.9375 C 187.652344 62.644531 188.414062 63.566406 188.871094 64.289062 C 190.269531 66.496094 191.664062 68.710938 193.175781 70.839844 C 194.691406 72.980469 196.796875 74.246094 199.3125 75.121094 C 203.367188 76.527344 207.613281 77.117188 211.753906 77.941406 C 218.003906 79.1875 222.882812 81.941406 226.601562 87.074219 C 228.804688 90.113281 230.683594 88.035156 231.921875 85.347656 C 236.125 76.203125 231.601562 64.933594 229.078125 55.917969 Z M 288.394531 60.570312 C 287.523438 63.085938 286.191406 65.355469 284.207031 67.117188 C 280.960938 69.996094 277.566406 72.695312 273.78125 74.867188 C 271.941406 75.925781 269.949219 76.472656 267.894531 76.660156 C 263.960938 77.011719 260.265625 78.382812 256.4375 79.1875 C 251.933594 80.132812 248.96875 83.347656 246.089844 86.660156 C 243.558594 89.570312 241.929688 89.320312 240.234375 85.800781 C 239.058594 83.355469 238.449219 80.746094 238.53125 78 C 238.605469 75.175781 238.738281 72.355469 239.273438 69.578125 C 240.152344 65.039062 241.707031 60.679688 242.890625 56.222656 C 243.964844 52.183594 246.464844 50.144531 250.722656 50.175781 C 253.195312 50.195312 255.660156 50.285156 258.113281 50.550781 C 259.546875 50.707031 260.15625 51.753906 260.558594 53.027344 C 261.472656 55.90625 262.160156 58.855469 263.558594 61.585938 C 265.003906 64.417969 267.539062 65.550781 270.347656 65.976562 C 275.0625 66.691406 278.675781 64.40625 281.796875 61.136719 C 283.160156 59.703125 285.179688 56.574219 287.160156 56.386719 C 288.578125 56.253906 288.90625 59.082031 288.394531 60.570312" style="fill: rgb(88, 55, 82);"/>
    </g>
  </g>
</svg>